<?xml version="1.0" encoding="UTF-8" standalone="no"?>
<!-- Created with Inkscape (http://www.inkscape.org/) -->

<svg
   xmlns:dc="http://purl.org/dc/elements/1.1/"
   xmlns:cc="http://creativecommons.org/ns#"
   xmlns:rdf="http://www.w3.org/1999/02/22-rdf-syntax-ns#"
   xmlns:svg="http://www.w3.org/2000/svg"
   xmlns="http://www.w3.org/2000/svg"
   xmlns:sodipodi="http://sodipodi.sourceforge.net/DTD/sodipodi-0.dtd"
   xmlns:inkscape="http://www.inkscape.org/namespaces/inkscape"
   width="4.2334232mm"
   height="4.2333946mm"
   viewBox="0 0 15.000318 15.000217"
   id="svg3664"
   version="1.1"
   inkscape:version="0.91 r13725"
   sodipodi:docname="hst-bigblock.svg">
  <defs
     id="defs3666" />
  <sodipodi:namedview
     id="base"
     pagecolor="#ffffff"
     bordercolor="#666666"
     borderopacity="1.0"
     inkscape:pageopacity="0.0"
     inkscape:pageshadow="2"
     inkscape:zoom="15.839192"
     inkscape:cx="13.576496"
     inkscape:cy="11.056553"
     inkscape:document-units="px"
     inkscape:current-layer="layer1"
     showgrid="false"
     fit-margin-top="0"
     fit-margin-left="0"
     fit-margin-right="0"
     fit-margin-bottom="0"
     inkscape:window-width="1325"
     inkscape:window-height="744"
     inkscape:window-x="41"
     inkscape:window-y="24"
     inkscape:window-maximized="1" />
  <metadata
     id="metadata3669">
    <rdf:RDF>
      <cc:Work
         rdf:about="">
        <dc:format>image/svg+xml</dc:format>
        <dc:type
           rdf:resource="http://purl.org/dc/dcmitype/StillImage" />
        <dc:title></dc:title>
      </cc:Work>
    </rdf:RDF>
  </metadata>
  <g
     inkscape:label="Ebene 1"
     inkscape:groupmode="layer"
     id="layer1"
     transform="translate(-210.34167,-443.12977)">
    <g
       id="g4235"
       transform="translate(-19.906409,-0.49815549)">
      <rect
         y="443.62814"
         x="235.2484"
         height="5"
         width="5"
         id="rect3336"
         style="fill:#ffffff;fill-opacity:1;stroke:none" />
      <path
         id="rect3338"
         transform="translate(210.34183,443.12988)"
         d="m 21.40625,0.49804688 c -0.831,0 -1.5,0.66900002 -1.5,1.50000002 l 0,3.5 5,0 0,-5.00000002 -3.5,0 z"
         style="fill:#b3b3b3;fill-opacity:1;stroke:none"
         inkscape:connector-curvature="0" />
      <path
         id="rect3340"
         transform="translate(210.34183,443.12988)"
         d="m 29.90625,0.49804688 0,5.00000002 5,0 0,-3.5 c 0,-0.831 -0.669,-1.50000002 -1.5,-1.50000002 l -3.5,0 z"
         style="fill:#b3b3b3;fill-opacity:1;stroke:none"
         inkscape:connector-curvature="0" />
      <rect
         style="fill:#b3b3b3;fill-opacity:1;stroke:none"
         id="rect4167"
         width="5"
         height="5"
         x="235.2484"
         y="448.62814" />
      <rect
         y="448.62814"
         x="230.2484"
         height="5"
         width="5"
         id="rect4169"
         style="fill:#ffffff;fill-opacity:1;stroke:none" />
      <rect
         style="fill:#ffffff;fill-opacity:1;stroke:none"
         id="rect4171"
         width="5"
         height="5"
         x="240.2484"
         y="448.62814" />
      <rect
         y="453.62814"
         x="235.2484"
         height="5"
         width="5"
         id="rect4175"
         style="fill:#ffffff;fill-opacity:1;stroke:none" />
      <path
         id="rect4177"
         transform="translate(210.34183,443.12988)"
         d="m 19.90625,10.498047 0,3.5 c 0,0.831 0.669,1.5 1.5,1.5 l 3.5,0 0,-5 -5,0 z"
         style="fill:#b3b3b3;fill-opacity:1;stroke:none"
         inkscape:connector-curvature="0" />
      <path
         id="rect4179"
         transform="translate(210.34183,443.12988)"
         d="m 29.90625,10.498047 0,5 3.5,0 c 0.831,0 1.5,-0.669 1.5,-1.5 l 0,-3.5 -5,0 z"
         style="fill:#b3b3b3;fill-opacity:1;stroke:none"
         inkscape:connector-curvature="0" />
    </g>
  </g>
</svg>
